TITLE ""
FILE "Disc2Track30.mp3" MP3
  TRACK 01 AUDIO
    TITLE "Disc2Track30_01"
    INDEX 01 00:00:00
  TRACK 02 AUDIO
    TITLE "Disc2Track30_02"
    INDEX 01 00:04:08
  TRACK 03 AUDIO
    TITLE "Disc2Track30_03"
    INDEX 01 00:04:24
  TRACK 04 AUDIO
    TITLE "Disc2Track30_04"
    INDEX 01 00:05:37
  TRACK 05 AUDIO
    TITLE "Disc2Track30_05"
    INDEX 01 00:06:42
  TRACK 06 AUDIO
    TITLE "Disc2Track30_06"
    INDEX 01 00:07:53
  TRACK 07 AUDIO
    TITLE "Disc2Track30_07"
    INDEX 01 00:11:06
  TRACK 08 AUDIO
    TITLE "Disc2Track30_08"
    INDEX 01 00:11:39
  TRACK 09 AUDIO
    TITLE "Disc2Track30_09"
    INDEX 01 00:12:57
  TRACK 10 AUDIO
    TITLE "Disc2Track30_10"
    INDEX 01 00:13:62
  TRACK 11 AUDIO
    TITLE "Disc2Track30_11"
    INDEX 01 00:15:06
  TRACK 12 AUDIO
    TITLE "Disc2Track30_12"
    INDEX 01 00:15:45
  TRACK 13 AUDIO
    TITLE "Disc2Track30_13"
    INDEX 01 00:17:03
  TRACK 14 AUDIO
    TITLE "Disc2Track30_14"
    INDEX 01 00:18:73
  TRACK 15 AUDIO
    TITLE "Disc2Track30_15"
    INDEX 01 00:20:29
  TRACK 16 AUDIO
    TITLE "Disc2Track30_16"
    INDEX 01 00:23:07
  TRACK 17 AUDIO
    TITLE "Disc2Track30_17"
    INDEX 01 00:23:39
  TRACK 18 AUDIO
    TITLE "Disc2Track30_18"
    INDEX 01 00:24:66
  TRACK 19 AUDIO
    TITLE "Disc2Track30_19"
    INDEX 01 00:26:08
  TRACK 20 AUDIO
    TITLE "Disc2Track30_20"
    INDEX 01 00:27:33
  TRACK 21 AUDIO
    TITLE "Disc2Track30_21"
    INDEX 01 00:30:09
  TRACK 22 AUDIO
    TITLE "Disc2Track30_22"
    INDEX 01 00:30:41
  TRACK 23 AUDIO
    TITLE "Disc2Track30_23"
    INDEX 01 00:32:01
  TRACK 24 AUDIO
    TITLE "Disc2Track30_24"
    INDEX 01 00:34:07
  TRACK 25 AUDIO
    TITLE "Disc2Track30_25"
    INDEX 01 00:35:38
  TRACK 26 AUDIO
    TITLE "Disc2Track30_26"
    INDEX 01 00:37:23
  TRACK 27 AUDIO
    TITLE "Disc2Track30_27"
    INDEX 01 00:37:57
  TRACK 28 AUDIO
    TITLE "Disc2Track30_28"
    INDEX 01 00:39:12
  TRACK 29 AUDIO
    TITLE "Disc2Track30_29"
    INDEX 01 00:40:20
  TRACK 30 AUDIO
    TITLE "Disc2Track30_30"
    INDEX 01 00:41:52
  TRACK 31 AUDIO
    TITLE "Disc2Track30_31"
    INDEX 01 00:42:20
  TRACK 32 AUDIO
    TITLE "Disc2Track30_32"
    INDEX 01 00:43:40
  TRACK 33 AUDIO
    TITLE "Disc2Track30_33"
    INDEX 01 00:45:36
  TRACK 34 AUDIO
    TITLE "Disc2Track30_34"
    INDEX 01 00:46:54
  TRACK 35 AUDIO
    TITLE "Disc2Track30_35"
    INDEX 01 00:50:47
  TRACK 36 AUDIO
    TITLE "Disc2Track30_36"
    INDEX 01 00:51:04
  TRACK 37 AUDIO
    TITLE "Disc2Track30_37"
    INDEX 01 00:52:29
  TRACK 38 AUDIO
    TITLE "Disc2Track30_38"
    INDEX 01 00:53:52
  TRACK 39 AUDIO
    TITLE "Disc2Track30_39"
    INDEX 01 00:54:75
  TRACK 40 AUDIO
    TITLE "Disc2Track30_40"
    INDEX 01 00:57:30
  TRACK 41 AUDIO
    TITLE "Disc2Track30_41"
    INDEX 01 00:57:61
  TRACK 42 AUDIO
    TITLE "Disc2Track30_42"
    INDEX 01 00:59:29
  TRACK 43 AUDIO
    TITLE "Disc2Track30_43"
    INDEX 01 01:00:32
  TRACK 44 AUDIO
    TITLE "Disc2Track30_44"
    INDEX 01 01:01:75
  TRACK 45 AUDIO
    TITLE "Disc2Track30_45"
    INDEX 01 01:02:43
  TRACK 46 AUDIO
    TITLE "Disc2Track30_46"
    INDEX 01 01:04:02
  TRACK 47 AUDIO
    TITLE "Disc2Track30_47"
    INDEX 01 01:06:39
  TRACK 48 AUDIO
    TITLE "Disc2Track30_48"
    INDEX 01 01:07:71
  TRACK 49 AUDIO
    TITLE "Disc2Track30_49"
    INDEX 01 01:10:72
  TRACK 50 AUDIO
    TITLE "Disc2Track30_50"
    INDEX 01 01:11:28
  TRACK 51 AUDIO
    TITLE "Disc2Track30_51"
    INDEX 01 01:12:63
  TRACK 52 AUDIO
    TITLE "Disc2Track30_52"
    INDEX 01 01:13:46
  TRACK 53 AUDIO
    TITLE "Disc2Track30_53"
    INDEX 01 01:15:08
  TRACK 54 AUDIO
    TITLE "Disc2Track30_54"
    INDEX 01 01:15:45
  TRACK 55 AUDIO
    TITLE "Disc2Track30_55"
    INDEX 01 01:16:68
  TRACK 56 AUDIO
    TITLE "Disc2Track30_56"
    INDEX 01 01:19:22
  TRACK 57 AUDIO
    TITLE "Disc2Track30_57"
    INDEX 01 01:20:45
  TRACK 58 AUDIO
    TITLE "Disc2Track30_58"
    INDEX 01 01:25:20
  TRACK 59 AUDIO
    TITLE "Disc2Track30_59"
    INDEX 01 01:25:52
  TRACK 60 AUDIO
    TITLE "Disc2Track30_60"
    INDEX 01 01:27:07
  TRACK 61 AUDIO
    TITLE "Disc2Track30_61"
    INDEX 01 01:28:09
  TRACK 62 AUDIO
    TITLE "Disc2Track30_62"
    INDEX 01 01:29:45
  TRACK 63 AUDIO
    TITLE "Disc2Track30_63"
    INDEX 01 01:30:06
  TRACK 64 AUDIO
    TITLE "Disc2Track30_64"
    INDEX 01 01:31:40
  TRACK 65 AUDIO
    TITLE "Disc2Track30_65"
    INDEX 01 01:32:67
  TRACK 66 AUDIO
    TITLE "Disc2Track30_66"
    INDEX 01 01:34:25
  TRACK 67 AUDIO
    TITLE "Disc2Track30_67"
    INDEX 01 01:38:66
  TRACK 68 AUDIO
    TITLE "Disc2Track30_68"
    INDEX 01 01:39:22
  TRACK 69 AUDIO
    TITLE "Disc2Track30_69"
    INDEX 01 01:40:53
  TRACK 70 AUDIO
    TITLE "Disc2Track30_70"
    INDEX 01 01:42:29
  TRACK 71 AUDIO
    TITLE "Disc2Track30_71"
    INDEX 01 01:43:57
  TRACK 72 AUDIO
    TITLE "Disc2Track30_72"
    INDEX 01 01:47:73
